#!OML:ASF F:\VICON\USERDATA\INSTALL\Justin_Nancy\Justin_Nancy.ASF
:FULLY-SPECIFIED
:DEGREES
248
root 9.20256 17.1088 17.8428 1.30101 33.5638 -4.87595
lowerback 4.71625 1.7543 3.57451
upperback 0.48498 2.61815 3.18688
thorax -2.13501 1.29582 1.10698
lowerneck -16.3381 -2.87002 -8.73432
upperneck 22.9772 -2.39361 3.4444
head 10.1968 -1.42463 2.36465
rclavicle 6.09275e-014 2.3059e-014
rhumerus -26.2948 -5.93678 -79.0207
rradius 45.819
rwrist -2.76927
rhand -19.0085 12.9617
rfingers 7.12502
rthumb 7.29697 -16.8924
lclavicle 6.09275e-014 2.3059e-014
lhumerus -38.1367 11.4357 83.3474
lradius 22.5955
lwrist -15.3238
lhand -10.9467 22.3383
lfingers 7.12502
lthumb 15.0718 51.7696
rfemur 12.27 4.76755 30.3423
rtibia 13.9643
rfoot -16.0652 -3.85853
rtoes -18.2225
lfemur -36.8396 -7.826 -11.4317
ltibia 22.0427
lfoot -11.4243 14.5289
ltoes 0.0745359
249
root 9.36054 17.0828 18.041 1.286 33.416 -4.8186
lowerback 4.72257 1.80497 3.48086
upperback 0.431777 2.68285 3.16929
thorax -2.19643 1.32763 1.13571
lowerneck -16.2982 -2.83792 -8.84583
upperneck 23.105 -2.35961 3.59541
head 10.2361 -1.40282 2.44395
rclavicle 4.14466e-014 -7.95139e-015
rhumerus -26.2858 -6.30427 -78.7813
rradius 46.0951
rwrist -3.07867
rhand -19.0568 13.1092
rfingers 7.12502
rthumb 7.25032 -16.7466
lclavicle 4.14466e-014 -7.95139e-015
lhumerus -38.4575 10.9208 83.6256
lradius 22.4568
lwrist -14.9229
lhand -10.8088 26.4009
lfingers 7.12502
lthumb 15.2046 55.8223
rfemur 13.3154 4.97303 30.2661
rtibia 13.8908
rfoot -15.7799 -3.64243
rtoes -19.8924
lfemur -36.8421 -7.36443 -11.6379
ltibia 21.6554
lfoot -12.0302 13.2595
ltoes -1.4197
250
root 9.52319 17.0402 18.2329 1.10005 33.2791 -4.82721
lowerback 4.91008 1.79479 3.53506
upperback 0.346909 2.68494 3.10702
thorax -2.38354 1.32469 1.03324
lowerneck -16.1224 -2.78129 -8.8407
upperneck 23.24 -2.33639 3.74628
head 10.2504 -1.37663 2.50319
rclavicle -3.6477e-014 7.95139e-016
rhumerus -26.5086 -6.61024 -78.7253
rradius 46.4071
rwrist -3.32955
rhand -19.3313 13.2047
rfingers 7.12502
rthumb 6.98538 -16.6601
lclavicle -3.6477e-014 7.95139e-016
lhumerus -38.9086 10.5835 83.6642
lradius 22.3734
lwrist -14.6757
lhand -10.2581 24.3709
lfingers 7.12502
lthumb 15.7351 53.7512
rfemur 14.3595 4.80932 30.1451
rtibia 14.2531
rfoot -15.7585 -3.5175
rtoes -23.4435
lfemur -36.5895 -7.26958 -11.7458
ltibia 21.5526
lfoot -11.9819 12.6642
ltoes -3.01843
251
root 9.6856 17.0061 18.4239 0.838019 33.2339 -4.81063
lowerback 5.11924 1.72412 3.4633
upperback 0.365844 2.59799 3.10545
thorax -2.48489 1.28095 1.0708
lowerneck -15.8856 -2.7295 -8.5705
upperneck 23.2408 -2.32098 3.59862
head 10.1982 -1.36423 2.4084
rclavicle 5.08889e-014 2.22639e-014
rhumerus -26.5521 -6.75794 -78.683
rradius 46.5534
rwrist -3.73969
rhand -19.6859 13.1216
rfingers 7.12502
rthumb 6.64307 -16.7542
lclavicle 5.08889e-014 2.22639e-014
lhumerus -38.9772 11.0838 83.455
lradius 21.749
lwrist -15.1751
lhand -9.95287 22.537
lfingers 7.12502
lthumb 16.029 51.8939
rfemur 15.156 4.75801 30.0375
rtibia 15.1009
rfoot -15.6845 -3.31102
rtoes -25.4373
lfemur -36.1093 -6.56847 -12.2447
ltibia 21.6651
lfoot -11.3174 11.2477
ltoes -3.04235
252
root 9.8544 16.9792 18.6164 0.848936 33.3235 -4.54585
lowerback 5.08658 1.60591 3.21295
upperback 0.423173 2.42055 3.07701
thorax -2.41726 1.19601 1.19535
lowerneck -15.7968 -2.62752 -8.23002
upperneck 23.2288 -2.21329 3.34664
head 10.1615 -1.31434 2.2764
rclavicle 1.56742e-013 3.18055e-015
rhumerus -26.5033 -6.86687 -78.5962
rradius 46.5985
rwrist -3.98744
rhand -19.8634 13.2995
rfingers 7.12502
rthumb 6.47172 -16.5817
lclavicle 1.56742e-013 3.18055e-015
lhumerus -38.9621 11.7552 83.1743
lradius 21.0543
lwrist -15.9287
lhand -10.2793 22.7837
lfingers 7.12502
lthumb 15.7146 52.1656
rfemur 15.6047 4.63363 29.6608
rtibia 16.235
rfoot -15.4368 -2.90481
rtoes -26.8281
lfemur -35.8387 -5.54685 -13.2255
ltibia 22.1429
lfoot -10.2783 9.71265
ltoes -3.90027
